<svg width="1280" height="360" viewBox="0 0 1280 360" fill="none" xmlns="http://www.w3.org/2000/svg">
  <defs>
    <linearGradient id="bg" x1="96" y1="24" x2="1184" y2="336" gradientUnits="userSpaceOnUse">
      <stop stop-color="#09111f"/>
      <stop offset="1" stop-color="#111827"/>
    </linearGradient>
    <linearGradient id="accent" x1="200" y1="96" x2="860" y2="264" gradientUnits="userSpaceOnUse">
      <stop stop-color="#38bdf8"/>
      <stop offset="0.55" stop-color="#f97316"/>
      <stop offset="1" stop-color="#ef4444"/>
    </linearGradient>
    <linearGradient id="shieldFill" x1="0" y1="0" x2="1" y2="1">
      <stop stop-color="#13243a"/>
      <stop offset="1" stop-color="#0b1424"/>
    </linearGradient>
    <filter id="blurGlow" x="0" y="0" width="1280" height="360" filterUnits="userSpaceOnUse" color-interpolation-filters="sRGB">
      <feGaussianBlur stdDeviation="26"/>
    </filter>
  </defs>

  <rect width="1280" height="360" rx="26" fill="url(#bg)"/>

  <g opacity="0.34" filter="url(#blurGlow)">
    <circle cx="194" cy="92" r="70" fill="#0ea5e9"/>
    <circle cx="1074" cy="118" r="100" fill="#ef4444"/>
    <circle cx="1016" cy="274" r="72" fill="#f59e0b"/>
  </g>

  <rect x="34" y="34" width="1212" height="292" rx="22" fill="rgba(15,23,42,0.24)" stroke="rgba(148,163,184,0.18)"/>

  <g transform="translate(128 76)">
    <path d="M92 0L158 28V98C158 158 118 210 92 226C66 210 26 158 26 98V28L92 0Z" fill="url(#shieldFill)" stroke="url(#accent)" stroke-width="8"/>
    <path d="M92 44V166" stroke="#e2e8f0" stroke-width="14" stroke-linecap="round"/>
    <path d="M58 106H126" stroke="#e2e8f0" stroke-width="14" stroke-linecap="round"/>
    <circle cx="92" cy="106" r="48" stroke="#38bdf8" stroke-width="6" opacity="0.7"/>
  </g>

  <text x="394" y="162" fill="#f8fafc" font-family="Segoe UI, Arial, sans-serif" font-size="84" font-weight="800">MCP</text>
  <text x="628" y="162" fill="url(#accent)" font-family="Segoe UI, Arial, sans-serif" font-size="84" font-weight="800">FIREWALL</text>
  <text x="396" y="212" fill="#cbd5e1" font-family="Segoe UI, Arial, sans-serif" font-size="28" font-weight="700">Fail-closed stdio transport control for MCP tool traffic</text>
</svg>
